<svg width="31" height="36" viewBox="0 0 31 36" fill="none" xmlns="http://www.w3.org/2000/svg">
<path d="M25.9731 19.3085C25.9559 16.4609 27.2822 14.3147 29.9606 12.7322C28.4626 10.6445 26.1963 9.49629 23.2088 9.27499C20.3802 9.05787 17.2854 10.8784 16.1522 10.8784C14.9546 10.8784 12.2161 9.35015 10.0614 9.35015C5.61453 9.41696 0.888672 12.799 0.888672 19.6801C0.888672 21.7136 1.27069 23.8138 2.03472 25.9767C3.0563 28.8243 6.73912 35.8014 10.5808 35.6887C12.5896 35.6427 14.0103 34.3024 16.6244 34.3024C19.1611 34.3024 20.4746 35.6887 22.7152 35.6887C26.5912 35.6344 29.922 29.2919 30.8921 26.4359C25.6941 24.0518 25.9731 19.4547 25.9731 19.3085ZM21.4618 6.5735C23.638 4.0599 23.4406 1.77178 23.3762 0.949219C21.4532 1.05778 19.2298 2.22272 17.9636 3.65489C16.5686 5.19144 15.7487 7.09125 15.9247 9.23324C18.0022 9.38773 19.8994 8.34805 21.4618 6.5735Z" fill="black"/>
</svg>
