<svg width="22" height="22" viewBox="0 0 22 22" fill="none" xmlns="http://www.w3.org/2000/svg">
<path d="M9.90583 1.00305C10.2306 1.00254 10.593 1.00305 11.0001 1.00305C14.2571 1.00305 14.6431 1.01474 15.9293 1.0732C17.1186 1.12759 17.7641 1.32635 18.1941 1.49333C18.7634 1.71446 19.1692 1.97879 19.5959 2.40579C20.0229 2.83278 20.2872 3.23945 20.5088 3.80878C20.6757 4.23832 20.8747 4.8839 20.9288 6.07339C20.9873 7.35947 21 7.7458 21 11.0017C21 14.2575 20.9873 14.6438 20.9288 15.9299C20.8745 17.1194 20.6757 17.765 20.5088 18.1945C20.2877 18.7639 20.0229 19.1693 19.5959 19.596C19.169 20.023 18.7636 20.2873 18.1941 20.5084C17.7646 20.6762 17.1186 20.8744 15.9293 20.9288C14.6434 20.9873 14.2571 21 11.0001 21C7.74291 21 7.35688 20.9873 6.07097 20.9288C4.88163 20.8739 4.23613 20.6752 3.80588 20.5082C3.23662 20.2871 2.83001 20.0227 2.40307 19.5957C1.97612 19.1687 1.71183 18.7631 1.49022 18.1935C1.32326 17.764 1.12427 17.1184 1.07014 15.9289C1.01169 14.6428 1 14.2565 1 10.9986C1 7.74071 1.01169 7.35642 1.07014 6.07034C1.12453 4.88085 1.32326 4.23527 1.49022 3.80522C1.71132 3.23589 1.97612 2.82923 2.40307 2.40223C2.83001 1.97523 3.23662 1.7109 3.80588 1.48927C4.23587 1.32152 4.88163 1.12327 6.07097 1.06862C7.19627 1.01779 7.63236 1.00254 9.90583 1V1.00305Z" fill="#301446" stroke="white" stroke-width="2"/>
<path d="M16.5 4.50052H16.5326C17.0695 4.51772 17.5 4.95891 17.5 5.5C17.5 6.05198 17.052 6.5 16.5 6.5C15.948 6.5 15.5 6.05198 15.5 5.5C15.5 4.94804 15.9477 4.50052 16.5 4.50052Z" fill="#301446" stroke="white"/>
<path d="M11.2 7C13.5194 7 15.4 8.88029 15.4 11.2C15.4 13.5194 13.5194 15.4 11.2 15.4C8.88029 15.4 7 13.5194 7 11.2C7 8.88029 8.88029 7 11.2 7Z" fill="#301446" stroke="white"/>
</svg>
