<svg width="26" height="26" viewBox="0 0 26 26" fill="none" xmlns="http://www.w3.org/2000/svg">
<path d="M12.9714 25.9999C10.3979 25.9954 7.88362 25.2277 5.74676 23.7941C3.6099 22.3605 1.94655 20.3254 0.967238 17.9465C-0.0120705 15.5675 -0.263312 12.9516 0.245318 10.4298C0.753947 7.90803 1.99958 5.59377 3.82455 3.77996C5.64952 1.96616 7.97179 0.734341 10.4974 0.24042C13.0231 -0.253502 15.6385 0.012678 18.0127 1.00527C20.387 1.99787 22.4132 3.67226 23.8351 5.8165C25.2569 7.96075 26.0104 10.4785 26.0002 13.0509C25.9556 20.2263 20.1165 26.0301 12.9714 25.9999ZM9.40677 11.6635C9.59499 11.6075 9.7243 11.5601 9.85792 11.5285C10.5275 11.3705 10.7846 11.0417 10.6022 10.2963C10.3764 9.29296 10.2138 8.27651 10.1151 7.25289C10.0591 6.76026 9.82775 6.61233 9.38522 6.57212C9.05047 6.54354 8.71339 6.58248 8.39397 6.6866C8.07456 6.79073 7.77932 6.95793 7.52578 7.17829C7.27224 7.39864 7.06557 7.66765 6.91802 7.96937C6.77047 8.27109 6.68505 8.59937 6.66683 8.93472C6.64593 9.62757 6.68922 10.3209 6.79614 11.0057C7.51453 15.7826 11.9456 19.5154 16.7732 19.4263C18.2947 19.399 19.3852 18.2386 19.3292 16.7406C19.3119 16.2379 19.164 15.9564 18.6108 15.899C17.7085 15.8056 16.8119 15.6476 15.9154 15.4983C14.72 15.2986 14.7214 15.2915 14.3076 16.4577C14.2933 16.4979 14.2487 16.528 14.1941 16.5912C11.8392 15.6965 10.2502 14.085 9.40677 11.6635Z" fill="#7B7FDA"/>
</svg>
