<svg width="18" height="15" viewBox="0 0 18 15" fill="none" xmlns="http://www.w3.org/2000/svg">
<path d="M17.7137 1.74497C17.3138 1.92263 16.8986 2.0628 16.4726 2.16427C16.942 1.7174 17.295 1.15846 17.4941 0.534582C17.5509 0.356476 17.3578 0.202463 17.1973 0.297825C16.6046 0.649993 15.9663 0.914184 15.2999 1.08315C15.2612 1.09295 15.2213 1.09792 15.1813 1.09792C15.0599 1.09792 14.9419 1.05276 14.8491 0.970812C14.1401 0.344781 13.2281 0 12.2814 0C11.8717 0 11.4581 0.0639705 11.052 0.190153C9.79368 0.581142 8.8228 1.62098 8.51819 2.90391C8.40391 3.38512 8.37297 3.86676 8.42616 4.33544C8.43226 4.3893 8.40685 4.42689 8.39118 4.44452C8.36366 4.47543 8.32465 4.49315 8.28414 4.49315C8.27962 4.49315 8.27497 4.49293 8.27036 4.49249C5.516 4.23612 3.03223 2.90672 1.27658 0.749224C1.18705 0.639177 1.01537 0.652675 0.944013 0.775296C0.600211 1.3662 0.418524 2.04204 0.418524 2.72976C0.418524 3.78371 0.841189 4.77695 1.57536 5.50102C1.26662 5.42769 0.967799 5.31219 0.690221 5.15774C0.555931 5.08299 0.3907 5.17906 0.388813 5.33294C0.369591 6.89866 1.28461 8.29185 2.65534 8.9192C2.62774 8.91986 2.60013 8.92017 2.57249 8.92017C2.35521 8.92017 2.13521 8.89915 1.91867 8.85769C1.76744 8.82876 1.64039 8.97249 1.68735 9.11938C2.13227 10.5109 3.32824 11.5367 4.75945 11.7696C3.57164 12.5684 2.1884 12.9897 0.748721 12.9897L0.299901 12.9895C0.161616 12.9895 0.0446604 13.0798 0.0094201 13.214C-0.0252936 13.3461 0.0386481 13.4855 0.156569 13.5543C1.77885 14.5001 3.6293 15 5.50867 15C7.15373 15 8.69254 14.6729 10.0824 14.028C11.3565 13.4367 12.4825 12.5914 13.4289 11.5157C14.3106 10.5136 15 9.35684 15.478 8.07751C15.9337 6.85803 16.1746 5.55681 16.1746 4.31451V4.25533C16.1745 4.05586 16.2646 3.86817 16.4217 3.7404C17.0179 3.25546 17.537 2.68461 17.9647 2.04371C18.0776 1.87449 17.8995 1.6624 17.7137 1.74497Z" fill="#301446"/>
</svg>
